<svg id="Capa_1" data-name="Capa 1" xmlns="http://www.w3.org/2000/svg" viewBox="0 0 641.99 225.26"><defs><style>.cls-1{fill:#73ff9b;}.cls-2{fill:#f517ff;}.cls-3{fill:#b85cff;}.cls-4{fill:#8b73ff;}.cls-5{fill:#2edeff;}</style></defs><title>SELL</title><path class="cls-1" d="M448.53,329.56q-6.91-13.5-22.2-13.5-20.41,0-20.4,23.7,0,14.7,25.2,19.5,28.49,5.4,44.55,23.1t16.05,46.5q0,29.42-18.15,48.45t-47.25,19.05q-42.91,0-61.8-34.2a2.54,2.54,0,0,1-.3-1.2q0-2.4,2.7-2.4a2.63,2.63,0,0,1,2.1,1.2q17.39,31.5,57.3,31.5,27,0,43.65-17.55t16.65-44.85q0-54-56.7-64.8-29.12-5.4-29.1-24.3,0-12.6,6.6-20.7t18.9-8.1q7.2,0,16.8,5.1,10.19,6,10.2,12.6c0,1.61-.9,2.4-2.7,2.4A2.11,2.11,0,0,1,448.53,329.56Z" transform="translate(-361.98 -271.11)"/><path class="cls-2" d="M531.17,276.81v214.5c0,1.59-.9,2.4-2.7,2.4a2.13,2.13,0,0,1-2.4-2.4V276.81a2.12,2.12,0,0,1,2.4-2.4Q531.17,274.41,531.17,276.81Z" transform="translate(-361.98 -271.11)"/><path class="cls-3" d="M541.37,276.81v214.5c0,1.59-.9,2.4-2.7,2.4a2.13,2.13,0,0,1-2.4-2.4V276.81a2.12,2.12,0,0,1,2.4-2.4Q541.37,274.41,541.37,276.81Z" transform="translate(-361.98 -271.11)"/><path class="cls-4" d="M551.57,276.81v214.5c0,1.59-.9,2.4-2.7,2.4a2.13,2.13,0,0,1-2.4-2.4V276.81a2.12,2.12,0,0,1,2.4-2.4Q551.57,274.41,551.57,276.81Z" transform="translate(-361.98 -271.11)"/><path class="cls-3" d="M561.77,276.81v214.5c0,1.59-.9,2.4-2.7,2.4a2.13,2.13,0,0,1-2.4-2.4V276.81a2.12,2.12,0,0,1,2.4-2.4Q561.77,274.41,561.77,276.81Z" transform="translate(-361.98 -271.11)"/><path class="cls-3" d="M628.67,373.41H575.43v5.1h53.24a2.12,2.12,0,0,0,2.4-2.4Q631.07,373.41,628.67,373.41Z" transform="translate(-361.98 -271.11)"/><path class="cls-4" d="M628.67,363.21H575.43v5.1h53.24a2.12,2.12,0,0,0,2.4-2.4Q631.07,363.21,628.67,363.21Z" transform="translate(-361.98 -271.11)"/><path class="cls-4" d="M628.67,404H575.43v5.1h53.24a2.12,2.12,0,0,0,2.4-2.4Q631.07,404,628.67,404Z" transform="translate(-361.98 -271.11)"/><path class="cls-2" d="M575.43,278.91h75.14c1.6,0,2.4-.71,2.4-2.12a2.11,2.11,0,0,0-2.4-2.38H575.43Z" transform="translate(-361.98 -271.11)"/><path class="cls-2" d="M650.57,488.61H575.43v5.1h75.14c1.6,0,2.4-.86,2.4-2.55S652.17,488.61,650.57,488.61Z" transform="translate(-361.98 -271.11)"/><path class="cls-3" d="M628.67,393.81H575.43v5.1h53.24a2.12,2.12,0,0,0,2.4-2.4Q631.07,393.81,628.67,393.81Z" transform="translate(-361.98 -271.11)"/><path class="cls-2" d="M572.09,488.61H572v-5.1h.12v-5.1H572v-5.1h.12v-5.1H572v-4.68a1.6,1.6,0,0,1-.05-.39V354.3a1.68,1.68,0,0,1,.05-.4V319.71h.12v-5.1H572v-5.1h.12v-5.1H572v-5.1h.12v-5.1H572v-5.1h.12V284H572v-5.1h.12v-4.35a1.21,1.21,0,0,1-.22-.15h-.8q-4.2,0-4.2,3V491q0,2.69,4.2,2.69h1Z" transform="translate(-361.98 -271.11)"/><path class="cls-2" d="M628.67,383.61H575.43v5.1h53.24a2.12,2.12,0,0,0,2.4-2.4Q631.07,383.61,628.67,383.61Z" transform="translate(-361.98 -271.11)"/><path class="cls-2" d="M650.57,314.61H575.43v5.1h75.14a2.12,2.12,0,0,0,2.4-2.4Q653,314.61,650.57,314.61Z" transform="translate(-361.98 -271.11)"/><path class="cls-3" d="M650.57,304.41H575.43v5.1h75.14a2.12,2.12,0,0,0,2.4-2.4Q653,304.41,650.57,304.41Z" transform="translate(-361.98 -271.11)"/><path class="cls-4" d="M650.57,294.21H575.43v5.1h75.14a2.12,2.12,0,0,0,2.4-2.4Q653,294.21,650.57,294.21Z" transform="translate(-361.98 -271.11)"/><path class="cls-3" d="M650.57,284H575.43v5.1h75.14a2.12,2.12,0,0,0,2.4-2.4Q653,284,650.57,284Z" transform="translate(-361.98 -271.11)"/><path class="cls-3" d="M650.57,458H575.43v5.1h75.14a2.12,2.12,0,0,0,2.4-2.4Q653,458,650.57,458Z" transform="translate(-361.98 -271.11)"/><path class="cls-2" d="M650.57,447.81H575.43v5.1h75.14a2.12,2.12,0,0,0,2.4-2.4Q653,447.81,650.57,447.81Z" transform="translate(-361.98 -271.11)"/><path class="cls-4" d="M650.57,468.21H575.43v5.1h75.14a2.12,2.12,0,0,0,2.4-2.4Q653,468.21,650.57,468.21Z" transform="translate(-361.98 -271.11)"/><path class="cls-3" d="M650.57,478.41H575.43v5.1h75.14a2.12,2.12,0,0,0,2.4-2.4Q653,478.41,650.57,478.41Z" transform="translate(-361.98 -271.11)"/><path class="cls-5" d="M694.37,276.81v214.5c0,1.59-.9,2.4-2.7,2.4a2.13,2.13,0,0,1-2.4-2.4V276.81a2.12,2.12,0,0,1,2.4-2.4Q694.37,274.41,694.37,276.81Z" transform="translate(-361.98 -271.11)"/><path class="cls-1" d="M704.57,276.81v214.5c0,1.59-.9,2.4-2.7,2.4a2.13,2.13,0,0,1-2.4-2.4V276.81a2.12,2.12,0,0,1,2.4-2.4Q704.57,274.41,704.57,276.81Z" transform="translate(-361.98 -271.11)"/><path class="cls-5" d="M714.77,276.81v214.5c0,1.59-.9,2.4-2.7,2.4a2.13,2.13,0,0,1-2.4-2.4V276.81a2.12,2.12,0,0,1,2.4-2.4Q714.77,274.41,714.77,276.81Z" transform="translate(-361.98 -271.11)"/><path class="cls-1" d="M725,276.81v214.5c0,1.59-.9,2.4-2.7,2.4a2.13,2.13,0,0,1-2.4-2.4V276.81a2.12,2.12,0,0,1,2.4-2.4Q725,274.41,725,276.81Z" transform="translate(-361.98 -271.11)"/><path class="cls-1" d="M825.77,487.71H738.19v5.1h87.59c1.59,0,2.39-.86,2.39-2.55S827.37,487.71,825.77,487.71Z" transform="translate(-361.98 -271.11)"/><path class="cls-1" d="M738.19,451.71h87.58a2.12,2.12,0,0,0,2.4-2.4q0-2.7-2.4-2.7H738.19Z" transform="translate(-361.98 -271.11)"/><path class="cls-5" d="M735.19,487.71h0v-5.4h0v-5.1h0v-5.1h0V467h0v-5.1h0v-5.1h0v-5.1h0v-5.1h0V276.81q0-2.4-2.7-2.4a2.12,2.12,0,0,0-2.4,2.4v214.5a2.17,2.17,0,0,0,2,2.4,2.51,2.51,0,0,0,3.06-.9h0Z" transform="translate(-361.98 -271.11)"/><path class="cls-5" d="M825.77,456.81H738.19v5.1h87.58a2.12,2.12,0,0,0,2.4-2.4Q828.17,456.81,825.77,456.81Z" transform="translate(-361.98 -271.11)"/><path class="cls-1" d="M825.77,467H738.19v5.1h87.58a2.12,2.12,0,0,0,2.4-2.4Q828.17,467,825.77,467Z" transform="translate(-361.98 -271.11)"/><path class="cls-5" d="M825.77,477.21H738.19v5.1h87.58a2.12,2.12,0,0,0,2.4-2.4Q828.17,477.21,825.77,477.21Z" transform="translate(-361.98 -271.11)"/><path class="cls-5" d="M870.17,276.81v214.5c0,1.59-.9,2.4-2.7,2.4a2.13,2.13,0,0,1-2.4-2.4V276.81a2.12,2.12,0,0,1,2.4-2.4Q870.17,274.41,870.17,276.81Z" transform="translate(-361.98 -271.11)"/><path class="cls-3" d="M880.37,276.81v214.5c0,1.59-.9,2.4-2.7,2.4a2.13,2.13,0,0,1-2.4-2.4V276.81a2.12,2.12,0,0,1,2.4-2.4Q880.37,274.41,880.37,276.81Z" transform="translate(-361.98 -271.11)"/><path class="cls-4" d="M890.57,276.81v214.5c0,1.59-.9,2.4-2.7,2.4a2.13,2.13,0,0,1-2.4-2.4V276.81a2.12,2.12,0,0,1,2.4-2.4Q890.57,274.41,890.57,276.81Z" transform="translate(-361.98 -271.11)"/><path class="cls-5" d="M900.77,276.81v214.5c0,1.59-.9,2.4-2.7,2.4a2.13,2.13,0,0,1-2.4-2.4V276.81a2.12,2.12,0,0,1,2.4-2.4Q900.77,274.41,900.77,276.81Z" transform="translate(-361.98 -271.11)"/><path class="cls-3" d="M911.26,487.71H911v-5.4h.29v-5.1H911v-5.1h.29V467H911v-5.1h.29v-5.1H911v-5.1h.29v-5.1H911V276.81q0-2.4-2.7-2.4a2.12,2.12,0,0,0-2.4,2.4v214.5a2.17,2.17,0,0,0,2,2.4,2.52,2.52,0,0,0,3.06-.9h.29Z" transform="translate(-361.98 -271.11)"/><path class="cls-4" d="M914.26,451.71h87.31a2.12,2.12,0,0,0,2.4-2.4q0-2.7-2.4-2.7H914.26Z" transform="translate(-361.98 -271.11)"/><path class="cls-4" d="M1001.57,487.71H914.26v5.1h87.32c1.59,0,2.39-.86,2.39-2.55S1003.17,487.71,1001.57,487.71Z" transform="translate(-361.98 -271.11)"/><path class="cls-5" d="M1001.57,456.81H914.26v5.1h87.31a2.12,2.12,0,0,0,2.4-2.4Q1004,456.81,1001.57,456.81Z" transform="translate(-361.98 -271.11)"/><path class="cls-5" d="M1001.57,477.21H914.26v5.1h87.31a2.12,2.12,0,0,0,2.4-2.4Q1004,477.21,1001.57,477.21Z" transform="translate(-361.98 -271.11)"/><path class="cls-3" d="M1001.57,467H914.26v5.1h87.31a2.12,2.12,0,0,0,2.4-2.4Q1004,467,1001.57,467Z" transform="translate(-361.98 -271.11)"/><path class="cls-1" d="M485.88,310.11a65.1,65.1,0,0,0-23.7-24.6,63.49,63.49,0,0,0-33.6-9.3q-26.71,0-44.1,18.6T367.08,341q0,27.3,22.5,41.7,20.39,9.3,41.1,18.6,22.19,10.5,22.2,28.8,0,26.4-24.3,26.4a44.77,44.77,0,0,1-16.5-3.6q-10.51-4.8-10.5-11.7,0-2.4,2.7-2.4a2.14,2.14,0,0,1,2.1,1.5q5.69,11.1,22.2,11.1,19.19,0,19.2-21.3,0-15.9-22.2-25.8-38.7-17.1-41.1-18.9Q362,370.11,362,341q0-29.4,18.75-49.65t47.85-20.25a68.74,68.74,0,0,1,36,9.9,70.51,70.51,0,0,1,25.8,26.7,2.8,2.8,0,0,1,.3,1.2q0,2.4-2.7,2.4A2.58,2.58,0,0,1,485.88,310.11Z" transform="translate(-361.98 -271.11)"/><path class="cls-5" d="M477.28,315.21A56.2,56.2,0,0,0,457,294.36a53.5,53.5,0,0,0-28.35-7.95q-22.5,0-36.9,15.6t-14.4,39q0,24.6,22.5,37.2,20.39,8.7,41.1,17.4,22.5,11.7,22.5,34.5,0,16.8-9.15,26.7t-25.65,9.9q-9.9,0-21.6-5.4Q393,455,393,446.61c0-1.8.79-2.7,2.4-2.7a2.72,2.72,0,0,1,2.4,1.5q8.39,16.2,30.9,16.2,29.7,0,29.7-31.5,0-20.7-22.5-31.5-20.42-8.7-41.1-17.4-22.5-13.5-22.5-40.2,0-25.2,15.75-42.45t40.65-17.25a58.53,58.53,0,0,1,31.05,8.7,61.15,61.15,0,0,1,22,22.8,2.8,2.8,0,0,1,.3,1.2,2.39,2.39,0,0,1-2.7,2.7A2.11,2.11,0,0,1,477.28,315.21Z" transform="translate(-361.98 -271.11)"/><path class="cls-4" d="M468,320.61q-12.94-24-40-24-18.36,0-29.81,12.6T386.68,341q0,21.3,22.5,31.8,20.38,8.4,41.1,16.8,22.5,13.2,22.5,40.5,0,21-12.15,33.9t-32.85,12.9q-31.21,0-44.4-24a2.54,2.54,0,0,1-.3-1.2q0-2.4,2.7-2.4a2.17,2.17,0,0,1,2.1,1.2q11.7,21.3,39.9,21.3,18.29,0,29.1-11.4t10.8-30.3q0-25.5-22.5-37.5-20.42-8.4-41.1-16.5-22.5-11.4-22.5-35.1,0-21,12.79-35.25t33.56-14.25q11.13,0,27.09,8.4,17.76,9.3,17.76,19.5c0,1.6-.91,2.4-2.71,2.4A2.15,2.15,0,0,1,468,320.61Z" transform="translate(-361.98 -271.11)"/><path class="cls-5" d="M458,325.68q-9.62-19.17-30.9-19.17-14.11,0-22.5,9.61t-8.4,24.64q0,12.63,9.9,19.54,6.89,4.8,23.7,9.31,52.49,13.53,52.5,60.4,0,25.25-15.15,41.17t-40.05,15.93q-37.21,0-53.1-28.8a2.54,2.54,0,0,1-.3-1.2,2.39,2.39,0,0,1,2.7-2.7,2.14,2.14,0,0,1,2.1,1.5q14.4,26.1,48.6,26.1,22.79,0,36.45-14.4t13.65-37.5q0-42.9-48.6-55.5-18-4.5-25.5-9.9-12-8.4-12-23.7,0-16.8,9.75-28.05t26.25-11.25q9.59,0,22.65,7.5t13,15.3c0,1.8-.81,2.7-2.4,2.7A2.7,2.7,0,0,1,458,325.68Z" transform="translate(-361.98 -271.11)"/></svg>